HIERARCHY
ROOT Hips
{
	OFFSET 0.00000 0.00000 0.00000
	CHANNELS 6 Xposition Yposition Zposition Zrotation Yrotation Xrotation 
	JOINT LHipJoint
	{
		OFFSET 0 0 0
		CHANNELS 3 Zrotation Yrotation Xrotation
		JOINT LeftUpLeg
		{
			OFFSET 1.82298 -1.58346 0.87084
			CHANNELS 3 Zrotation Yrotation Xrotation
			JOINT LeftLeg
			{
				OFFSET 2.43790 -6.69809 0.00000
				CHANNELS 3 Zrotation Yrotation Xrotation
				JOINT LeftFoot
				{
					OFFSET 2.59288 -7.12389 0.00000
					CHANNELS 3 Zrotation Yrotation Xrotation
					JOINT LeftToeBase
					{
						OFFSET 0.14552 -0.39981 2.13160
						CHANNELS 3 Zrotation Yrotation Xrotation
						End Site
						{
							OFFSET 0.00000 -0.00000 1.09427
						}
					}
				}
			}
		}
	}
	JOINT RHipJoint
	{
		OFFSET 0 0 0
		CHANNELS 3 Zrotation Yrotation Xrotation
		JOINT RightUpLeg
		{
			OFFSET -1.77229 -1.58346 0.87084
			CHANNELS 3 Zrotation Yrotation Xrotation
			JOINT RightLeg
			{
				OFFSET -2.50703 -6.88801 0.00000
				CHANNELS 3 Zrotation Yrotation Xrotation
				JOINT RightFoot
				{
					OFFSET -2.61620 -7.18796 0.00000
					CHANNELS 3 Zrotation Yrotation Xrotation
					JOINT RightToeBase
					{
						OFFSET -0.15190 -0.41735 2.15974
						CHANNELS 3 Zrotation Yrotation Xrotation
						End Site
						{
							OFFSET -0.00000 -0.00000 1.10919
						}
					}
				}
			}
		}
	}
	JOINT LowerBack
	{
		OFFSET 0 0 0
		CHANNELS 3 Zrotation Yrotation Xrotation
		JOINT Spine
		{
			OFFSET -0.03602 2.12423 -0.30249
			CHANNELS 3 Zrotation Yrotation Xrotation
			JOINT Spine1
			{
				OFFSET 0.02717 2.10043 0.12912
				CHANNELS 3 Zrotation Yrotation Xrotation
				JOINT Neck
				{
					OFFSET 0 0 0
					CHANNELS 3 Zrotation Yrotation Xrotation
					JOINT Neck1
					{
						OFFSET -0.06371 1.88656 0.11602
						CHANNELS 3 Zrotation Yrotation Xrotation
						JOINT Head
						{
							OFFSET 0.08208 1.87759 -0.11505
							CHANNELS 3 Zrotation Yrotation Xrotation
							End Site
							{
								OFFSET 0.03382 1.93090 -0.05483
							}
						}
					}
				}
				JOINT LeftShoulder
				{
					OFFSET 0 0 0
					CHANNELS 3 Zrotation Yrotation Xrotation
					JOINT LeftArm
					{
						OFFSET 3.30903 1.40357 0.20156
						CHANNELS 3 Zrotation Yrotation Xrotation
						JOINT LeftForeArm
						{
							OFFSET 5.43301 -0.00000 0.00000
							CHANNELS 3 Zrotation Yrotation Xrotation
							JOINT LeftHand
							{
								OFFSET 3.15936 -0.00000 0.00000
								CHANNELS 3 Zrotation Yrotation Xrotation
								JOINT LeftFingerBase
								{
									OFFSET 0 0 0
									CHANNELS 3 Zrotation Yrotation Xrotation
									JOINT LeftHandIndex1
									{
										OFFSET 0.71283 -0.00000 0.00000
										CHANNELS 3 Zrotation Yrotation Xrotation
										End Site
										{
											OFFSET 0.57470 -0.00000 0.00000
										}
									}
								}
								JOINT LThumb
								{
									OFFSET 0 0 0
									CHANNELS 3 Zrotation Yrotation Xrotation
									End Site
									{
										OFFSET 0.58347 -0.00000 0.58347
									}
								}
							}
						}
					}
				}
				JOINT RightShoulder
				{
					OFFSET 0 0 0
					CHANNELS 3 Zrotation Yrotation Xrotation
					JOINT RightArm
					{
						OFFSET -3.12947 1.60037 -0.00464
						CHANNELS 3 Zrotation Yrotation Xrotation
						JOINT RightForeArm
						{
							OFFSET -5.34194 -0.00000 0.00000
							CHANNELS 3 Zrotation Yrotation Xrotation
							JOINT RightHand
							{
								OFFSET -3.19351 -0.00000 0.00000
								CHANNELS 3 Zrotation Yrotation Xrotation
								JOINT RightFingerBase
								{
									OFFSET 0 0 0
									CHANNELS 3 Zrotation Yrotation Xrotation
									JOINT RightHandIndex1
									{
										OFFSET -0.74386 -0.00000 0.00000
										CHANNELS 3 Zrotation Yrotation Xrotation
										End Site
										{
											OFFSET -0.59972 -0.00000 0.00000
										}
									}
								}
								JOINT RThumb
								{
									OFFSET 0 0 0
									CHANNELS 3 Zrotation Yrotation Xrotation
									End Site
									{
										OFFSET -0.60888 -0.00000 0.60888
									}
								}
							}
						}
					}
				}
			}
		}
	}
}
MOTION
Frames: 15
Frame Time: 0.00716846
0.00 0.00 0.00 361.8200 12.6766 355.6720 0.0000 0.0000 0.0000 -25.0494 0.0825 -30.0587 11.5551 18.1962 64.5713 0.8959 13.3513 -27.2116 0.0545 -1.5066 -4.1438 0.0000 0.0000 0.0000 9.9383 6.1304 -53.9248 -16.5851 -19.7181 79.9702 0.0057 -8.8688 -12.5339 -0.0025 0.3247 -0.8921 -9.3228 0.9643 13.4800 0.5575 -0.2492 -2.1551 5.9492 0.4373 -9.9481 -8.1242 -5.9018 -6.1162 7.3665 -8.0284 11.6786 3.0791 -3.8624 5.1362 -0.0000 0.0000 0.0000 -135.6721 -55.3942 111.3422 84.4697 -59.8841 -55.2125 -0.0000 0.0000 -41.8930 37.4066 39.3047 25.8465 -7.1250 0.0000 -0.0000 4.1057 75.8109 2.9751 -0.0000 0.0000 0.0000 87.6391 19.4459 55.9047 -62.2201 56.8731 -36.1945 0.0000 -0.0000 -66.5004 -28.1240 -54.9113 23.6223 7.1250 -0.0000 -0.0000 77.9774 -82.4520 -70.4319
0.00 0.00 0.00 361.5090 15.9765 354.0410 0.0000 0.0000 0.0000 -23.4934 0.8876 -23.2759 11.0865 17.9771 63.0621 1.2996 12.8852 -29.6275 0.2067 -2.9272 -8.0762 0.0000 0.0000 0.0000 6.3809 7.3207 -53.6891 -12.1562 -18.4559 66.4830 0.0265 -2.9555 -0.4155 -0.0021 0.2975 -0.8174 -9.4515 1.1470 13.8714 0.6626 -0.0581 -2.1301 6.1015 0.5513 -10.1843 -9.5975 -7.0155 -5.8144 8.0155 -9.6177 13.6641 3.3789 -4.6617 5.9362 0.0000 -0.0000 0.0000 -125.6891 -49.9398 108.5039 98.8420 -59.7025 -67.6498 -0.0000 0.0000 -30.8837 37.4623 42.0937 27.1884 -7.1250 0.0000 -0.0000 0.9209 78.6739 0.7221 0.0000 -0.0000 0.0000 85.2407 23.6156 53.7760 -79.9884 59.6179 -51.3408 0.0000 -0.0000 -63.8701 -15.4418 -52.6098 12.3785 7.1250 -0.0000 -0.0000 63.7921 -76.9465 -51.2503
0.00 0.00 0.00 361.3620 18.4830 352.8300 0.0000 0.0000 0.0000 -22.2080 1.6211 -18.0284 10.5748 17.7207 61.3929 1.5726 12.6923 -31.2293 0.3489 -3.7954 -10.5018 0.0000 0.0000 0.0000 3.5159 7.8511 -51.3735 -8.7915 -16.6717 55.3664 -0.2351 0.3219 9.2804 -0.0009 -0.1927 0.5294 -9.6043 0.9882 13.5156 0.8201 -0.2297 -1.8811 6.3947 0.4477 -9.6680 -10.2962 -7.5991 -5.8885 7.9606 -10.4323 15.4288 3.3802 -5.0856 6.6194 -0.0000 -0.0000 0.0000 -113.5018 -42.4054 101.9604 115.7411 -57.3420 -82.0935 -0.0000 0.0000 -27.0422 31.1198 36.8611 19.9080 -7.1250 0.0000 -0.0000 -4.5250 71.1460 -2.8217 -0.0000 -0.0000 0.0000 81.7072 30.7594 52.8991 -96.9464 59.8169 -66.0120 0.0000 -0.0000 -59.1894 -3.7016 -45.9982 2.6644 7.1250 -0.0000 -0.0000 52.2957 -69.4502 -33.6554
0.00 0.00 0.00 362.6660 24.1860 351.1690 0.0000 0.0000 0.0000 -18.7637 5.4626 -4.1324 8.7181 16.6228 55.1099 2.0472 14.1387 -35.1467 0.5298 -4.6643 -12.9536 0.0000 0.0000 0.0000 -6.6166 11.7825 -40.2643 -2.6540 -10.1126 29.3423 -2.8910 -6.0545 30.9424 -0.3945 -4.0330 11.1695 -11.4962 0.2065 12.3937 0.7840 -1.4240 -1.4956 7.6435 -0.1254 -8.3466 -10.0964 -8.8190 -4.1787 7.0127 -12.0821 14.5027 2.9640 -5.9829 6.1218 0.0000 0.0000 0.0000 -84.4350 6.9126 73.3088 120.4937 -56.1769 -86.0694 -0.0000 0.0000 -43.0554 35.2779 42.0086 25.3358 -7.1250 0.0000 -0.0000 -3.7161 77.7685 -2.8452 0.0000 0.0000 0.0000 44.9193 70.4287 26.8022 -106.2198 58.9822 -73.9988 0.0000 0.0000 11.6652 -42.8576 -32.9278 26.7654 7.1250 -0.0000 -0.0000 -17.2957 -70.7569 10.7322
0.00 0.00 0.00 363.5440 25.7306 351.8780 0.0000 0.0000 0.0000 -18.5716 5.2223 -2.1993 8.5325 16.4973 54.4589 2.0803 15.0647 -36.0548 0.5534 -4.7653 -13.2403 0.0000 0.0000 0.0000 -8.7667 11.7394 -38.9702 -2.3281 -9.5184 27.4307 -3.3854 -8.6884 33.3631 -0.6808 -5.2756 14.6964 -12.3560 0.0629 11.6594 0.3847 -1.6841 -1.6342 7.7162 -0.2376 -8.0189 -10.5412 -9.2437 -2.4550 7.7072 -12.8311 13.4864 3.2744 -6.3748 5.6513 0.0000 -0.0000 0.0000 -80.9610 16.6140 66.9959 105.5284 -59.0690 -73.4059 -0.0000 0.0000 -43.1839 23.2435 30.2782 12.2189 -7.1250 0.0000 -0.0000 -9.7317 62.1531 -4.0799 0.0000 -0.0000 0.0000 14.1308 74.7081 -3.9658 -86.3190 59.9487 -56.8127 0.0000 0.0000 32.6675 -44.2004 -37.5798 30.6711 7.1250 -0.0000 -0.0000 -20.4413 -76.2642 15.1299
0.00 0.00 0.00 363.5120 28.8859 352.1580 0.0000 0.0000 0.0000 -17.0125 3.2168 0.8224 8.4920 16.4694 54.3159 2.0862 16.7527 -37.4604 0.6668 -5.2223 -14.5438 0.0000 0.0000 0.0000 -9.2805 9.8503 -36.9200 -2.2678 -9.4030 27.0643 -3.9991 -10.9160 36.3148 -0.9558 -6.2257 17.4406 -12.3286 0.1074 11.7053 0.0365 -1.6384 -1.4487 7.3067 -0.2440 -7.8601 -10.3916 -10.0543 -2.7965 7.6340 -13.9195 13.6803 3.1054 -6.8889 5.8589 0.0000 -0.0000 0.0000 -77.1910 28.2652 62.6160 99.7016 -59.6414 -68.3917 -0.0000 0.0000 -57.5040 14.4616 25.1604 6.2574 -7.1250 0.0000 -0.0000 -16.1887 55.1177 -4.1010 0.0000 -0.0000 0.0000 -24.1880 69.8420 -36.6308 -68.9535 58.2583 -41.8798 0.0000 0.0000 21.4475 -48.3331 -29.7231 29.1235 7.1250 -0.0000 -0.0000 -27.0236 -68.8619 15.8808
0.00 0.00 0.00 363.2590 32.1601 351.8460 0.0000 0.0000 0.0000 -15.2788 0.0767 3.6714 8.7549 16.6474 55.2386 1.8416 19.2023 -38.3700 0.9604 -6.2401 -17.4825 0.0000 0.0000 0.0000 -7.3270 5.9578 -36.2078 -2.9002 -10.5317 30.7163 -2.1199 -7.3329 26.1962 -0.0726 -1.7377 4.7812 -13.0701 0.4291 13.8418 -0.2884 -1.6605 -1.3186 7.4361 -0.1558 -8.9400 -11.6930 -10.9913 -0.6180 10.8273 -15.4783 9.8300 4.3161 -7.6434 4.8015 0.0000 0.0000 0.0000 -74.2014 37.5157 61.2506 110.0509 -58.4250 -77.2727 -0.0000 0.0000 -63.7750 15.0095 28.3991 7.2673 -7.1250 0.0000 -0.0000 -17.5496 58.3472 -5.8456 0.0000 0.0000 0.0000 -33.9806 61.0432 -42.8632 -67.0202 57.9075 -40.2387 0.0000 0.0000 30.5404 -46.5829 -30.6571 28.3194 7.1250 -0.0000 -0.0000 -23.9973 -69.3795 14.2981
0.00 0.00 0.00 366.4510 29.8681 364.9560 0.0000 0.0000 0.0000 -10.5294 4.4893 19.2725 2.0024 8.8710 25.3927 -1.0429 25.5431 -29.2245 1.6643 -8.1287 -23.1057 0.0000 0.0000 0.0000 -1.4874 -2.2069 -61.3099 -12.0358 -18.4058 66.1023 0.1868 9.1873 -2.0867 -0.0537 1.4954 -4.1131 -10.3512 2.2092 10.9585 -0.8758 1.3675 -3.0763 4.6147 1.2483 -9.7870 -11.2641 -12.0211 0.8126 10.4096 -16.6539 6.1208 4.2043 -8.2981 3.5079 -0.0000 0.0000 0.0000 -75.3693 39.0065 56.9930 113.2432 -57.8569 -79.9844 -0.0000 0.0000 -57.9932 15.8614 44.6685 11.2958 -7.1250 0.0000 -0.0000 -37.6305 72.7690 -25.7692 -0.0000 0.0000 0.0000 -39.8925 48.0425 -47.9374 -74.0222 59.0131 -46.2086 0.0000 0.0000 27.9106 -46.7476 -21.3413 21.1480 7.1250 -0.0000 -0.0000 -21.2518 -58.3854 7.1658
0.00 0.00 0.00 369.9300 38.0546 373.3570 0.0000 0.0000 0.0000 -4.3109 -1.0030 11.3091 1.3641 7.3922 20.8827 -1.1899 22.4349 -21.5336 3.0772 -10.8190 -31.6719 0.0000 0.0000 0.0000 -2.2214 3.0120 -67.9342 -14.0649 -19.1336 72.4027 -0.3816 -2.3189 -12.7502 -0.0123 0.7151 -1.9653 -5.3088 2.4919 17.5271 -0.8543 2.1054 -1.1549 1.5027 1.2852 -11.3290 -6.1295 -3.3194 -6.7530 1.4176 -3.9432 4.4799 1.3503 -2.0232 2.7910 -0.0000 -0.0000 0.0000 -78.0018 8.7869 54.4325 108.6122 -58.6497 -76.0455 -0.0000 0.0000 -46.1651 30.3328 38.3567 19.9560 -7.1250 0.0000 -0.0000 -7.3164 72.3820 -4.7661 -0.0000 -0.0000 0.0000 -10.3841 57.2447 -11.9395 -63.7184 57.2220 -37.4517 0.0000 0.0000 10.6523 -21.8666 -23.4147 9.0611 7.1250 -0.0000 -0.0000 7.8075 -54.8248 -1.8927
0.00 0.00 0.00 375.8690 59.6272 382.7340 0.0000 0.0000 0.0000 5.0152 -11.8022 -3.8671 1.1739 6.8772 19.3520 -1.1252 18.3814 -6.7980 2.0985 -9.0683 -26.0091 0.0000 0.0000 0.0000 -2.6945 9.4143 -61.4794 -13.2053 -18.8550 69.7620 -1.2519 3.3248 -20.3139 -0.2713 3.3507 -9.2567 -4.3333 2.8054 19.6288 -0.8397 2.6604 -0.1296 0.7603 1.4797 -11.3580 -2.8456 1.7688 -6.9253 -3.6298 2.8478 3.5978 -0.5497 1.2765 2.3465 0.0000 -0.0000 0.0000 -78.2141 -23.6163 67.3281 115.1501 -57.4696 -81.5956 -0.0000 0.0000 -41.5611 23.6958 34.9692 14.1192 -7.1250 0.0000 -0.0000 -12.8624 66.9334 -6.8415 0.0000 -0.0000 0.0000 8.3407 55.5649 13.3858 -60.9945 56.5692 -35.1698 0.0000 0.0000 11.6284 -10.4330 -22.6974 4.0640 7.1250 -0.0000 -0.0000 18.8782 -52.0270 -3.3650
0.00 0.00 0.00 489.3910 83.0322 497.7480 0.0000 0.0000 0.0000 8.3591 -14.9406 -38.2221 3.6002 11.6086 34.3609 -0.0217 3.0525 0.5695 0.3305 -3.6947 -10.2192 0.0000 0.0000 0.0000 0.9434 18.6580 -50.7275 -12.2488 -18.4939 66.7754 -1.8661 2.7731 -25.1113 -0.8041 5.7230 -15.9828 -0.9499 1.5102 21.1283 0.3220 1.8711 -0.0608 0.3161 0.9673 -12.0084 0.5007 5.0757 -6.0820 -6.4031 7.1847 4.3885 -1.8447 3.4061 2.7528 0.0000 -0.0000 0.0000 -101.0793 -49.2591 103.9821 122.7713 -55.5251 -87.9544 -0.0000 0.0000 -34.6636 19.5101 33.7128 11.1256 -7.1250 0.0000 -0.0000 -16.7179 64.5307 -8.0107 0.0000 -0.0000 0.0000 27.1240 41.0602 38.2602 -78.8570 59.5256 -50.3652 0.0000 0.0000 3.2594 -5.8103 -29.9867 2.9114 7.1250 -0.0000 -0.0000 28.0681 -57.8062 -9.2792
0.00 0.00 0.00 530.7090 65.7344 538.1490 0.0000 0.0000 0.0000 -0.7927 -15.3677 -51.4703 7.6588 15.8625 51.3243 -0.1099 6.5546 -5.5078 0.4490 -4.2990 -11.9193 0.0000 0.0000 0.0000 5.0550 23.1412 -45.0489 -12.2185 -18.4815 66.6798 -2.1597 1.4023 -27.4253 -0.6630 5.2075 -14.5012 0.8779 1.0861 21.7716 0.8380 1.8624 -0.1504 -0.1668 0.8786 -12.4351 2.3678 6.6112 -5.2553 -7.9833 9.2573 4.7718 -2.6146 4.4412 3.0237 0.0000 -0.0000 0.0000 -121.5087 -50.7130 129.8118 128.7638 -53.4821 -92.8355 -0.0000 0.0000 -32.0655 23.8138 36.7682 14.7981 -7.1250 0.0000 -0.0000 -14.5815 68.7044 -8.3561 0.0000 -0.0000 0.0000 34.1281 30.2594 49.4708 -93.1821 59.9617 -62.7555 0.0000 -0.0000 -8.3431 -3.6188 -34.3910 2.0459 7.1250 -0.0000 -0.0000 34.3422 -61.0354 -14.3710
0.00 0.00 0.00 538.1160 43.9028 544.5860 0.0000 0.0000 0.0000 -12.7669 -15.0632 -55.0142 13.3695 18.9115 70.2693 -0.7555 16.8648 -14.1872 1.2752 -7.1570 -20.1812 0.0000 0.0000 0.0000 10.7513 20.7963 -41.9764 -11.8676 -18.3341 65.5686 -1.2862 -5.7106 -24.1774 -0.1386 2.3996 -6.6114 1.0738 1.2764 21.9902 2.7921 2.4921 -0.9155 1.7076 1.2523 -13.5404 2.9477 8.1159 -4.0948 -9.7637 11.5305 5.2607 -3.2292 5.5859 3.2980 -0.0000 -0.0000 0.0000 -132.1758 -47.4242 144.0356 137.6688 -49.3920 -99.8083 -0.0000 0.0000 -22.9314 25.8809 35.9556 15.9005 -7.1250 0.0000 -0.0000 -11.0233 68.5611 -6.2600 -0.0000 -0.0000 0.0000 39.7011 17.3794 59.9549 -109.2079 58.5590 -76.5540 0.0000 -0.0000 -20.5666 -0.8717 -34.9677 0.4996 7.1250 -0.0000 -0.0000 37.6599 -60.8306 -15.7999
0.00 0.00 0.00 541.5750 14.6290 547.9400 0.0000 0.0000 0.0000 -18.7857 -6.3188 -48.2234 19.5707 19.9956 88.7446 -0.5050 15.9261 -16.4665 1.6245 -8.0357 -22.8227 0.0000 0.0000 0.0000 10.7054 13.7045 -43.0722 -11.5131 -18.1772 64.4369 -1.1727 0.0930 -20.4512 -1.7348 8.2903 -23.5992 4.0522 0.9725 19.8284 2.8317 2.8096 -1.2860 -0.0102 1.2273 -12.5978 4.1364 8.8916 -3.4941 -10.9108 12.5400 4.0977 -3.4165 6.1287 2.7478 0.0000 -0.0000 0.0000 -108.8871 -48.7558 121.9828 143.8047 -45.6471 -104.3380 -0.0000 0.0000 -20.5539 29.3685 37.0015 18.7103 -7.1250 0.0000 -0.0000 -7.2655 70.7105 -4.4652 0.0000 -0.0000 0.0000 51.2233 1.7605 65.7310 -123.4064 55.3317 -88.4774 0.0000 -0.0000 -39.5008 5.3031 -33.0237 -2.8959 7.1250 -0.0000 -0.0000 41.4518 -57.8937 -14.7236
0.00 0.00 0.00 544.7820 -3.5138 549.1890 0.0000 0.0000 0.0000 -7.4000 3.8019 -43.4888 21.4619 19.9487 94.2779 -0.1129 15.9487 -21.4770 0.9643 -6.2524 -17.5184 0.0000 0.0000 0.0000 12.7519 11.8127 -40.3306 -10.5480 -17.7067 61.3048 -1.3939 -2.2530 -23.2168 -2.6316 10.0734 -29.2146 5.2797 1.3964 17.1456 4.2279 3.0918 -1.2050 0.8648 1.1576 -10.9591 3.7691 8.7097 -4.0747 -10.3759 11.7555 2.6756 -3.6083 5.6038 2.5419 -0.0000 -0.0000 0.0000 -77.9647 -26.4090 76.4640 130.6932 -52.7121 -94.3784 -0.0000 0.0000 -2.6521 52.1722 54.6014 46.3923 -7.1250 0.0000 -0.0000 175.9619 -83.5557 -176.4402 -0.0000 -0.0000 0.0000 57.9330 -8.2370 64.3919 -124.6323 54.9436 -89.4832 0.0000 -0.0000 -50.1772 13.9811 -26.4588 -6.3301 7.1250 -0.0000 -0.0000 43.3398 -51.1718 -7.8504
